<svg width="21" height="21" viewBox="0 0 21 21" fill="none" xmlns="http://www.w3.org/2000/svg">
<path d="M17.8879 1H3.11007C1.94414 1 0.998962 1.94518 0.998962 3.11111V17.8889C0.998962 19.0548 1.94414 20 3.11007 20H17.8879C19.0538 20 19.999 19.0548 19.999 17.8889V3.11111C19.999 1.94518 19.0538 1 17.8879 1Z" stroke="#1DA1F2" stroke-width="2" stroke-linecap="round" stroke-linejoin="round"/>
<path d="M9.7271 13.1618C9.51206 13.4372 9.214 13.6457 8.83292 13.7874C8.45184 13.9291 8.01904 14 7.53452 14C7.03639 14 6.59542 13.889 6.21162 13.6671C5.82782 13.4452 5.53112 13.1283 5.32152 12.7166C5.11465 12.3021 5.00713 11.8195 4.99896 11.2687V10.8115C4.99896 9.92914 5.214 9.24064 5.64408 8.74599C6.07416 8.24866 6.67436 8 7.44469 8C8.10614 8 8.63149 8.16043 9.02074 8.48128C9.40999 8.80214 9.64408 9.26471 9.72302 9.86898H8.71043C8.5961 9.16578 8.181 8.81417 7.46511 8.81417C7.00236 8.81417 6.64986 8.97861 6.4076 9.30749C6.16807 9.63369 6.04422 10.1136 6.03605 10.7473V11.1965C6.03605 11.8275 6.17079 12.3182 6.44027 12.6684C6.71247 13.016 7.08947 13.1898 7.57127 13.1898C8.09934 13.1898 8.47497 13.0722 8.69818 12.8369V11.6939H7.47327V10.9238H9.7271V13.1618Z" fill="#1DA1F2"/>
<path d="M11.9523 13.9198H10.9234V8.08021H11.9523V13.9198Z" fill="#1DA1F2"/>
<path d="M16.6478 11.4452H14.2552V13.9198H13.2222V8.08021H16.999V8.8984H14.2552V10.635H16.6478V11.4452Z" fill="#1DA1F2"/>
<path d="M9.7271 13.1618C9.51206 13.4372 9.214 13.6457 8.83292 13.7874C8.45184 13.9291 8.01904 14 7.53452 14C7.03639 14 6.59542 13.889 6.21162 13.6671C5.82782 13.4452 5.53112 13.1283 5.32152 12.7166C5.11465 12.3021 5.00713 11.8195 4.99896 11.2687V10.8115C4.99896 9.92914 5.214 9.24064 5.64408 8.74599C6.07416 8.24866 6.67436 8 7.44469 8C8.10614 8 8.63149 8.16043 9.02074 8.48128C9.40999 8.80214 9.64408 9.26471 9.72302 9.86898H8.71043C8.5961 9.16578 8.181 8.81417 7.46511 8.81417C7.00236 8.81417 6.64986 8.97861 6.4076 9.30749C6.16807 9.63369 6.04422 10.1136 6.03605 10.7473V11.1965C6.03605 11.8275 6.17079 12.3182 6.44027 12.6684C6.71247 13.016 7.08947 13.1898 7.57127 13.1898C8.09934 13.1898 8.47497 13.0722 8.69818 12.8369V11.6939H7.47327V10.9238H9.7271V13.1618Z" stroke="#1DA1F2" stroke-width="0.2"/>
<path d="M11.9523 13.9198H10.9234V8.08021H11.9523V13.9198Z" stroke="#1DA1F2" stroke-width="0.2"/>
<path d="M16.6478 11.4452H14.2552V13.9198H13.2222V8.08021H16.999V8.8984H14.2552V10.635H16.6478V11.4452Z" stroke="#1DA1F2" stroke-width="0.2"/>
</svg>
