<svg width="24" height="24" viewBox="0 0 24 24" fill="none" xmlns="http://www.w3.org/2000/svg">
<path fill-rule="evenodd" clip-rule="evenodd" d="M11.2073 2.09L21.3103 7.545C21.6743 7.743 21.8103 8.198 21.6143 8.561C21.4173 8.925 20.9613 9.058 20.5973 8.865L19.7793 8.423L18.1533 19.913C17.9353 21.152 16.8423 22 15.4903 22H6.20833C4.85834 22 3.76433 21.153 3.55033 19.938L1.92134 8.425L1.10634 8.865C0.993335 8.925 0.870335 8.955 0.750335 8.955C0.484335 8.955 0.225335 8.812 0.0903352 8.562C-0.106665 8.197 0.0293352 7.742 0.393335 7.545L10.4943 2.09C10.7173 1.97 10.9843 1.97 11.2073 2.09ZM15.4923 20.5C15.9693 20.5 16.5653 20.284 16.6723 19.678L18.3723 7.663L10.8503 3.603L3.33034 7.665L5.03234 19.702C5.13534 20.284 5.73034 20.5 6.21034 20.5H15.4923ZM10.8503 15.939C8.76531 15.939 7.07031 14.243 7.07031 12.159C7.07031 10.075 8.76531 8.37901 10.8503 8.37901C12.9353 8.37901 14.6303 10.075 14.6303 12.159C14.6303 14.243 12.9353 15.939 10.8503 15.939ZM10.8503 14.439C12.1083 14.439 13.1303 13.417 13.1303 12.159C13.1303 10.901 12.1083 9.87901 10.8503 9.87901C9.59231 9.87901 8.57031 10.901 8.57031 12.159C8.57031 13.417 9.59231 14.439 10.8503 14.439Z" fill="black"/>
</svg>
