<svg width="21" height="21" viewBox="0 0 21 21" fill="none" xmlns="http://www.w3.org/2000/svg">
<path d="M17.888 1.00037H3.111C1.94513 1.00037 1 1.94549 1 3.11136V17.8883C1 19.0542 1.94513 19.9993 3.111 19.9993H17.888C19.0538 19.9993 19.999 19.0542 19.999 17.8883V3.11136C19.999 1.94549 19.0538 1.00037 17.888 1.00037Z" stroke="#1DA1F2" stroke-width="2" stroke-linecap="round" stroke-linejoin="round"/>
<path d="M6.80584 8.38772C7.68024 8.38772 8.38909 7.67887 8.38909 6.80447C8.38909 5.93007 7.68024 5.22122 6.80584 5.22122C5.93144 5.22122 5.2226 5.93007 5.2226 6.80447C5.2226 7.67887 5.93144 8.38772 6.80584 8.38772Z" stroke="#1DA1F2" stroke-width="2" stroke-linecap="round" stroke-linejoin="round"/>
<path d="M19.9984 13.667L14.7209 8.3895L3.11041 20" stroke="#1DA1F2" stroke-width="2" stroke-linecap="round" stroke-linejoin="round"/>
</svg>
